<svg width="1707" height="366" viewBox="0 0 1707 366" fill="none" xmlns="http://www.w3.org/2000/svg">
<path d="M0 86.6667V173.333H86.6667H173.333V86.6667V1.13249e-06H86.6667H0V86.6667Z" fill="black"/>
<path d="M191.599 0.933335C191.066 1.33333 190.666 40.4 190.666 87.6V173.333H277.333H363.999V86.6667V1.13249e-06H278.266C231.066 1.13249e-06 191.999 0.400001 191.599 0.933335Z" fill="black"/>
<path d="M1582.67 58.6664C1568.67 61.7331 1553.87 72.1331 1547.6 83.5997C1542.13 93.7331 1540 104.133 1540 120.266V134.533L1527.07 134.933L1514 135.333L1513.6 150.266L1513.2 165.333H1526.67H1540V228.666V292H1558.67H1577.33V228.666V165.333H1604.67H1632V205.6C1632.13 253.733 1633.07 262.8 1638.93 274.666C1643.87 284.266 1651.6 290.666 1661.73 293.466C1670.27 295.733 1688.8 295.333 1698.4 292.666L1706.67 290.266V275.333V260.4L1699.07 262.933C1686.8 267.066 1677.2 264.533 1672.4 255.6C1670.27 251.866 1670 246.4 1669.6 208.266L1669.2 165.333H1687.87H1706.67V150V134.666H1688H1669.33V111.866V89.0664L1665.73 89.9997C1663.6 90.3997 1655.2 92.9331 1647.07 95.4664L1632 100.133V117.733V135.333L1604.53 134.933L1577.07 134.533L1577.47 118.933C1578 101.866 1579.73 96.9331 1586.93 91.5997C1591.87 87.9997 1603.33 87.0664 1611.2 89.7331L1617.33 91.8664V75.9997C1617.33 62.5331 1617.07 60.1331 1615.07 59.4664C1611.07 57.8664 1588.8 57.4664 1582.67 58.6664Z" fill="black"/>
<path d="M752.534 71.8669C745.601 76.1336 742.268 82.0003 742.268 90.1336C742.268 103.2 752.134 111.6 766.401 110.4C778.534 109.334 786.001 101.6 786.001 90.0003C786.001 82.0003 783.334 77.3336 776.001 72.2669C770.268 68.4003 758.534 68.1336 752.534 71.8669Z" fill="black"/>
<path d="M473.334 182.666V292H491.334H509.334L509.067 208C508.801 161.733 509.067 124 509.467 124C509.867 124 525.334 161.866 544.001 208L577.867 292.133L591.201 291.733L604.534 291.333L637.467 208.266C655.601 162.533 670.801 124.8 671.201 124.4C671.601 123.866 672.001 161.466 672.001 207.733V292H690.667H709.334V182.666V73.3331H683.601H657.867L627.334 148.266C610.534 189.6 595.601 226 594.267 229.2L591.601 235.2L580.001 205.866C573.601 189.866 559.201 153.466 548.001 124.933L527.601 73.3331H500.401H473.334V182.666Z" fill="black"/>
<path d="M869.333 134C842.267 140.133 821.067 159.466 812 186.666C807.867 198.666 806.8 224.933 809.867 237.866C814.667 258 829.2 277.466 846 286.266C866.8 297.066 897.867 298.133 920.933 289.066L928.667 286L929.333 268.933C929.733 259.6 929.867 252 929.733 252C929.6 252 925.6 254.133 920.8 256.666C898.533 269.066 873.6 266.933 859.067 251.6C848.133 240.133 843.867 223.6 846.667 204.133C849.333 185.6 860 171.2 875.467 165.466C890 160 910.667 162.533 924 171.6C926.533 173.2 928.933 174.666 929.333 174.666C929.733 174.666 929.867 166.666 929.6 156.8L929.2 138.933L920.267 136C908.667 132.133 882.4 131.066 869.333 134Z" fill="black"/>
<path d="M1028 133.467C1014.93 135.334 1004.67 142.934 998.134 155.6L994.801 162L994.667 148.267V134.534L976.401 134.934L958.001 135.334L957.601 213.6L957.334 292H975.867H994.534L994.934 243.6L995.334 195.334L999.067 187.334C1004.93 174.934 1011.73 168.667 1021.87 166.8C1028.67 165.6 1039.73 167.067 1045.6 170.134L1049.33 172.134V154.134C1049.33 141.2 1048.8 135.867 1047.73 135.067C1044.93 133.467 1034.4 132.534 1028 133.467Z" fill="black"/>
<path d="M1110.8 134C1081.87 140.533 1061.33 160.8 1054 190C1050.93 202.133 1050.8 226.533 1053.87 239.2C1060.13 265.733 1080.13 285.867 1106.93 292.933C1118.4 295.867 1141.73 295.867 1154 292.667C1177.87 286.667 1197.2 269.867 1205.47 248.266C1210.27 235.066 1212.4 220.8 1211.47 206C1210.13 181.866 1203.73 166.266 1190.13 152.533C1181.6 144.133 1175.47 140.266 1162.67 135.733C1152.8 132.133 1123.2 131.2 1110.8 134ZM1150 165.866C1158.93 169.866 1166.93 179.2 1170.13 188.933C1172.13 195.066 1172.67 200.533 1172.67 214.666C1172.53 230.266 1172.13 233.733 1169.47 240.4C1165.6 250.266 1160 256.533 1151.47 260.933C1145.6 264 1142.93 264.4 1132.67 264.4C1119.47 264.4 1112.27 262.133 1104.27 255.466C1091.73 244.666 1086 218.933 1091.33 196.266C1095.07 180.8 1102 171.466 1114 165.866C1123.47 161.333 1140.53 161.333 1150 165.866Z" fill="black"/>
<path d="M1268.4 134C1252.67 138.4 1238.67 149.467 1233.2 161.734C1228.8 171.734 1228.8 189.867 1233.33 199.334C1238.8 210.534 1244.93 215.334 1268.53 226.667C1280.4 232.4 1291.2 238.4 1292.53 239.867C1296 243.734 1296.93 253.734 1294.13 258C1286.53 269.6 1258.27 268.4 1237.07 255.467L1229.33 250.8V268.8V286.667L1234.13 288.667C1248.93 294.8 1277.47 296.8 1293.07 292.8C1310.27 288.4 1322.93 279.067 1329.33 266C1332 260.4 1332.53 257.334 1332.53 246.667C1332.53 236.267 1332.13 233.067 1329.73 228.534C1323.07 215.867 1314.53 209.467 1290.53 198.667C1272.93 190.934 1268.13 186.8 1267.07 178.8C1264.53 160.534 1292.13 155.2 1319.07 168.8L1325.47 172.134L1325.07 155.067L1324.67 138.134L1316.67 135.6C1305.73 132.134 1278.13 131.2 1268.4 134Z" fill="black"/>
<path d="M1407.33 134.533C1388.53 139.2 1372.13 150.533 1362.53 165.467C1348.67 187.2 1345.6 222.667 1355.33 248.933C1367.33 281.067 1401.33 299.467 1439.87 294.667C1461.87 292 1473.87 286.533 1487.33 272.8C1503.6 256.4 1509.87 239.467 1509.87 212C1509.87 185.2 1503.6 167.6 1488.93 152.8C1479.07 143.067 1470.53 138.267 1456.53 134.667C1443.33 131.2 1420.67 131.2 1407.33 134.533ZM1450.13 166.267C1457.6 170.267 1464.53 178.267 1468.13 187.467C1470.67 194.133 1471.2 197.867 1471.2 212.667C1471.33 240 1465.73 252.8 1450.13 260.667C1443.07 264.133 1440.8 264.533 1430.8 264.533C1416.4 264.4 1407.47 260.933 1400 252.4C1391.33 242.4 1388.8 234.133 1388.67 214.667C1388.67 188 1394.67 174.933 1410.93 166.667C1418.93 162.667 1419.87 162.533 1432 162.933C1441.6 163.333 1446 164.133 1450.13 166.267Z" fill="black"/>
<path d="M745.334 213.334V292H764.001H782.667L782.401 213.6L782.001 135.334L763.734 134.934L745.334 134.534V213.334Z" fill="black"/>
<path d="M0 278.667V365.333H86.6667H173.333V278.667V192H86.6667H0V278.667Z" fill="black"/>
<path d="M190.933 278.267L191.333 364.667L277.733 365.067L363.999 365.333V278.667V192H277.333H190.666L190.933 278.267Z" fill="black"/>
</svg>
