<svg width="155" height="117" viewBox="0 0 155 117" fill="none" xmlns="http://www.w3.org/2000/svg">
<path d="M103 0C114.598 1.03088e-06 124 9.40202 124 21V88H118C117.32 88 116.652 88.0517 116 88.1523V21C116 13.9326 110.36 8.18208 103.336 8.00391L103 8H21C13.8203 8 8 13.8203 8 21V96L8.00391 96.3359C8.18208 103.36 13.9326 109 21 109H47V117H21C9.58323 117 0.294312 107.889 0.00683594 96.542L0 96V21C1.15974e-06 9.40202 9.40202 1.61064e-07 21 0H103Z" fill="black"/>
<path d="M152 59L123.666 84.3724C121.367 86.431 117.881 86.4101 115.607 84.3241L88 59" stroke="black" stroke-width="8"/>
</svg>
