<svg width="64" height="71" viewBox="0 0 64 71" fill="none" xmlns="http://www.w3.org/2000/svg">
<line x1="57.8047" y1="0.9375" x2="57.8047" y2="67.9375" stroke="black" stroke-width="11"/>
<path d="M50.2012 53.0156C50.0071 56.4929 49.7958 59.3349 49.5684 61.5234C49.3504 63.6212 49.0975 65.3549 48.748 66.4687L48.748 66.4922L48.7246 66.5156L47.998 68.7656L45.4902 67.9453L42.1387 67.9453L42.1387 67.3594L42.2793 66.8906L43.0293 64.6406C43.1738 64.1602 43.3749 62.9979 43.5918 60.9141C43.8054 58.8582 44.0094 56.1017 44.2012 52.6641C44.575 45.9559 44.2471 39.2457 43.2168 32.5312C42.3894 27.1369 41.995 19.8455 41.998 10.7109L42.1387 0.960938L42.1387 0.9375L48.1387 0.9375L48.1387 1.125C47.7818 14.8488 48.1507 24.9718 49.1699 31.6172C50.263 38.7408 50.5989 45.8857 50.2012 53.0156Z" fill="black"/>
<path d="M40.0723 30.9375C43.1222 38.3208 44.1256 45.7806 43.002 53.2734C42.4738 56.7902 41.9076 59.7261 41.2676 62.0156C40.8125 63.6421 40.249 65.1762 39.5332 66.3984L38.7598 67.5234L38.7129 67.5703L36.7207 69.8203L34.5879 67.9453L31.4707 67.9453L31.4707 66.7031L32.2207 65.8359L34.1895 63.6328C34.4059 63.3772 34.8989 62.4703 35.4785 60.3984C36.0253 58.4428 36.5622 55.7796 37.0723 52.3828C38.0224 46.0452 37.2023 39.6814 34.541 33.2344C31.4123 25.6606 30.4961 14.7288 31.4707 0.820312L33.1348 0.9375L37.4707 0.9375L37.4707 1.24219C36.515 14.8804 37.4837 24.6712 40.0723 30.9375Z" fill="black"/>
<path d="M11.791 13.4531C11.8966 16.8222 11.0759 20.1276 9.42383 23.3203C8.05719 25.961 6.97407 28.5728 6.21289 31.1719C5.70902 32.8932 5.98886 34.7523 7.61914 36.9609C9.94819 40.1152 11.3473 43.4639 11.5566 46.9687C11.7771 50.7071 10.3358 54.2137 7.73633 57.4219C6.89102 58.466 6.65387 59.2553 6.63477 59.8125C6.61657 60.3507 6.80041 61.0633 7.52539 62.0156C8.57561 63.3946 9.40316 64.584 9.89258 65.4844C10.0886 65.8453 10.4619 66.5526 10.5488 67.3594C10.5933 67.7725 10.6277 68.7721 9.91602 69.7031C9.11747 70.7467 7.98616 70.9453 7.36133 70.9453L7.19727 70.9453L7.03321 70.9219L6.14258 70.8281L6.44727 67.9453L4.57227 67.9453L4.57227 67.9922C4.6227 68.4609 4.79517 68.6676 4.61914 68.3437C4.55671 68.229 4.44207 68.1101 4.33789 67.9453L3.47071 67.9453L3.47071 66.7031C3.25035 66.3995 3.03128 66.0255 2.74414 65.6484C1.39128 63.8697 0.559539 61.827 0.634768 59.6016C0.711735 57.3962 1.67662 55.3998 3.09571 53.6484C5.02668 51.2634 5.68969 49.1759 5.58008 47.3203C5.45508 45.2274 4.61628 42.9661 2.81445 40.5234C0.310908 37.1328 -0.66458 33.3627 0.470704 29.4844C1.34844 26.4887 2.55118 23.5089 4.08008 20.5547C5.3218 18.1548 5.86083 15.8642 5.79102 13.6406C5.71279 11.1953 5.00783 7.295 3.56445 1.80469L3.4707 1.42969L3.4707 0.9375L9.37695 0.28125C10.8415 5.85263 11.6902 10.3002 11.791 13.4531Z" fill="black"/>
<path d="M29.4551 16.2891C29.6449 20.5526 28.1763 24.6446 25.377 28.5C22.9998 31.7739 21.1795 35.0127 19.8691 38.2031C19.4205 39.2961 19.3616 40.293 19.6816 41.3203C20.0237 42.4145 20.8513 43.7156 22.4004 45.2109C26.2625 48.939 28.7089 53.0211 29.0801 57.4453C29.396 61.215 28.8721 64.7033 26.8301 67.2656L26.8301 67.2891L26.8066 67.3125L24.791 69.75L22.6113 67.9453L19.4707 67.9453L19.4707 66.75L20.1504 65.9297L22.1426 63.5391L22.6113 62.7422C23.0308 61.7858 23.2988 60.2678 23.1035 57.9375C22.895 55.4863 21.4839 52.6914 18.2285 49.5469C16.2139 47.6022 14.6962 45.4473 13.9629 43.1016C13.2132 40.6946 13.3529 38.2475 14.3145 35.9063C15.8287 32.2223 17.9113 28.5852 20.5254 24.9844C22.7202 21.9617 23.5724 19.1611 23.4551 16.5469C23.3215 13.5981 22.1487 8.82926 19.6582 2.0625L19.4707 1.57031L19.4707 0.9375L25.2832 -2.54072e-07C27.8064 6.85558 29.2786 12.3574 29.4551 16.2891Z" fill="black"/>
</svg>
