<svg width="200" height="200" viewBox="0 0 200 200" fill="none" xmlns="http://www.w3.org/2000/svg">
<rect x="116.109" y="61.3191" width="32.2071" height="30.9331" rx="6" transform="rotate(180 116.109 61.3191)" stroke="black" stroke-width="8"/>
<rect x="138.738" y="84.0355" width="32.2071" height="30.9331" rx="6" transform="rotate(-135 138.738 84.0355)" stroke="black" stroke-width="8"/>
<rect x="138.682" y="116.104" width="32.2071" height="30.9331" rx="6" transform="rotate(-90 138.682 116.104)" stroke="black" stroke-width="8"/>
<rect x="115.964" y="138.739" width="32.2071" height="30.9331" rx="6" transform="rotate(-45 115.964 138.739)" stroke="black" stroke-width="8"/>
<rect x="83.8965" y="138.682" width="32.2071" height="30.9331" rx="6" stroke="black" stroke-width="8"/>
<rect x="61.2617" y="115.965" width="32.2071" height="30.9331" rx="6" transform="rotate(45 61.2617 115.965)" stroke="black" stroke-width="8"/>
<rect x="61.3184" y="83.8969" width="32.2071" height="30.9331" rx="6" transform="rotate(90 61.3184 83.8969)" stroke="black" stroke-width="8"/>
<rect x="84.0358" y="61.261" width="32.2071" height="30.9331" rx="6" transform="rotate(135 84.0358 61.261)" stroke="black" stroke-width="8"/>
<rect x="116.104" y="114.83" width="32.2071" height="30.9331" rx="11" transform="rotate(180 116.104 114.83)" stroke="black" stroke-width="8"/>
</svg>
