<svg width="112" height="112" viewBox="0 0 112 112" fill="none" xmlns="http://www.w3.org/2000/svg">
<path d="M3.2793 105.632L103.915 9.58551" stroke="black" stroke-width="8"/>
<path d="M5.56481 3.2785L101.611 103.915" stroke="black" stroke-width="8"/>
<path d="M9.86816 110.236C4.25652 110.236 3.84123e-05 105.536 0 100.107L1.42105e-06 67.5977H8L8 100.107C8.00004 101.448 8.99816 102.236 9.86816 102.236H43.0977V110.236H9.86816Z" fill="black"/>
<path d="M11.0889 8.00006C9.74845 8.00036 8.96114 8.99826 8.96094 9.86823L8.96094 43.5977H0.96094L0.960941 9.86823C0.961124 4.25661 5.66063 0.000372876 11.0889 6.10352e-05L43.0977 6.24343e-05V8.00006L11.0889 8.00006Z" fill="black"/>
<path d="M103.195 43.5977L103.195 11.088C103.195 9.7471 102.197 8.95905 101.327 8.95905L67.0977 8.95905V0.959048L101.327 0.959049C106.939 0.959052 111.195 5.65942 111.195 11.088L111.195 43.5977H103.195Z" fill="black"/>
<path d="M110.237 101.327C110.237 106.939 105.537 111.195 100.108 111.195L67.0977 111.195V103.195L100.108 103.195C101.449 103.195 102.237 102.197 102.237 101.327V67.5977H110.237V101.327Z" fill="black"/>
</svg>
